<?xml version="1.0" encoding="utf-8"?>
<!-- Generator: Adobe Illustrator 25.0.0, SVG Export Plug-In . SVG Version: 6.00 Build 0)  -->
<svg version="1.1" id="Icons" xmlns="http://www.w3.org/2000/svg" xmlns:xlink="http://www.w3.org/1999/xlink" x="0px" y="0px"
	 viewBox="0 0 512 512" style="enable-background:new 0 0 512 512;" xml:space="preserve">
<style type="text/css">
	.st0{fill:#FFFFFF;stroke:#FFFFFF;stroke-width:4;stroke-miterlimit:10;}
	.st1{fill:#FFFFFF;}
</style>
<path class="st0" d="M424.5,404.8H87.5c-40.7,0-73.7-33-73.7-73.7c0-38.1,29.1-70,67-73.4c3.7-54.5,50.9-95.6,105.3-91.9
	c8.6,0.6,17.1,2.3,25.3,5.1c30.7-58.4,102.9-80.9,161.4-50.2c49.6,26.1,74.5,83.1,59.7,137.2c40.5,4.5,69.7,40.9,65.2,81.3
	C493.6,376.6,462.1,404.9,424.5,404.8L424.5,404.8z M179.4,179.4c-46.9,0.1-84.9,38-84.9,84.9c0,3.8-3.1,6.9-6.9,6.9
	c-33.1,0-59.9,26.8-59.9,59.9S54.5,391,87.5,391h336.9c33.1,0,59.9-26.8,59.9-59.9s-26.8-59.9-59.9-59.9h-1.1
	c-3.8,0-6.9-3.1-6.9-6.9c0-0.8,0.1-1.5,0.4-2.3c4-11.3,6.1-23.3,6.1-35.3c0-58.4-47.3-105.8-105.7-105.8c-41.3,0-78.8,24-96.1,61.5
	c-1.6,3.4-5.5,4.9-9,3.5C201.8,181.6,190.6,179.4,179.4,179.4z"/>
<path class="st1" d="M218.6,316.9l11.8,3c-1.9,8.7-6.6,16.5-13.4,22.2c-6.8,5.2-15.1,7.9-23.6,7.7c-8.2,0.4-16.4-1.7-23.5-5.9
	c-6.2-4.1-11-10.1-13.8-17c-3.2-7.6-4.8-15.7-4.7-24c-0.2-8.4,1.6-16.8,5.3-24.4c3.3-6.7,8.6-12.2,15.2-15.8
	c6.7-3.6,14.1-5.5,21.7-5.4c8.1-0.3,16,2.1,22.6,6.8c6.3,4.8,10.8,11.6,12.8,19.2l-11.7,2.8c-1.5-5.6-4.6-10.5-9-14.2
	c-4.3-3.1-9.6-4.7-14.9-4.5c-6.1-0.2-12.2,1.5-17.2,4.9c-4.6,3.3-8,7.9-9.7,13.3c-1.9,5.5-2.8,11.3-2.8,17.2
	c-0.1,6.8,1,13.5,3.3,19.9c1.9,5.3,5.6,9.8,10.3,12.7c4.6,2.8,9.9,4.2,15.2,4.2c6.1,0.2,12.1-1.9,16.8-5.7
	C214.3,329.5,217.5,323.4,218.6,316.9z"/>
<path class="st1" d="M193.4,350.7c-8.4,0.4-16.7-1.7-24-6c-6.4-4.3-11.3-10.3-14.1-17.4c-3.2-7.7-4.9-16-4.8-24.3
	c-0.2-8.6,1.7-17.1,5.4-24.8c3.4-6.8,8.8-12.5,15.5-16.2c6.8-3.7,14.4-5.6,22.1-5.5c8.3-0.3,16.4,2.2,23.1,7
	c6.4,4.9,11,11.9,13,19.7l0.3,0.9l-13.3,3.1l-0.2-0.8c-1.4-5.4-4.5-10.2-8.7-13.8c-4.2-3-9.2-4.5-14.4-4.3
	c-5.9-0.2-11.8,1.5-16.7,4.8c-4.4,3.2-7.7,7.7-9.4,12.8c-1.8,5.4-2.8,11.2-2.8,16.9c-0.1,6.7,1,13.3,3.3,19.6
	c1.8,5.1,5.4,9.4,10,12.3c4.4,2.7,9.5,4.1,14.7,4.1c5.9,0.2,11.7-1.8,16.3-5.5c4.8-4.3,8-10.2,9-16.5l0.2-0.9l13.5,3.4l-0.2,0.8
	c-1.9,8.9-6.7,16.9-13.7,22.7C210.6,348.1,202.1,350.9,193.4,350.7z M193.6,258.2c-7.4-0.1-14.7,1.8-21.3,5.3
	c-6.4,3.5-11.6,8.9-14.8,15.4c-3.6,7.5-5.4,15.7-5.2,24c-0.1,8.1,1.5,16.2,4.7,23.6c2.7,6.8,7.4,12.6,13.5,16.7c7,4.1,15,6.1,23,5.7
	c8.3,0.2,16.5-2.4,23.1-7.5c6.4-5.4,11-12.7,12.9-20.9l-10.1-2.6c-1.2,6.4-4.6,12.3-9.4,16.6c-4.9,4-11.1,6.1-17.4,5.9
	c-5.5,0-10.9-1.5-15.6-4.3c-4.9-3-8.7-7.7-10.7-13.1c-2.4-6.5-3.5-13.3-3.4-20.2c0-5.9,1-11.8,2.9-17.4c1.8-5.5,5.3-10.3,10-13.7
	c5.2-3.5,11.4-5.3,17.7-5.1c5.5-0.2,10.9,1.4,15.4,4.6c4.4,3.6,7.5,8.4,9.1,13.9l10-2.4c-2-7.1-6.3-13.4-12.2-17.9
	C209.2,260.2,201.4,257.9,193.6,258.2L193.6,258.2z"/>
<path class="st1" d="M241.4,304.7c-0.7-12.7,3.5-25.3,12-34.9c8-8.4,19.3-13,30.9-12.6c7.8-0.1,15.6,1.9,22.3,5.9
	c6.6,3.9,11.9,9.6,15.2,16.5c3.6,7.5,5.4,15.7,5.2,24c0.1,8.4-1.7,16.8-5.5,24.3c-3.4,6.9-8.8,12.6-15.6,16.3
	c-6.6,3.7-14.1,5.6-21.7,5.5c-7.9,0.1-15.8-2-22.6-6.1c-6.5-4-11.8-9.8-15.1-16.7C243.1,320.1,241.4,312.5,241.4,304.7z
	 M253.6,304.9c-0.5,9.3,2.6,18.4,8.7,25.5c11.6,12.1,30.8,12.4,42.9,0.8c0.3-0.3,0.6-0.6,0.9-0.9c6.2-7.5,9.3-17,8.6-26.7
	c0.1-6.5-1.1-13-3.7-19.1c-2.3-5.2-6-9.6-10.8-12.6c-4.8-3-10.3-4.6-16-4.5c-8.1-0.1-15.9,3-21.6,8.6
	C256.6,281.8,253.6,291.4,253.6,304.9L253.6,304.9z"/>
<path class="st1" d="M284.2,350.7c-8.1,0.1-16.1-2-23-6.2c-6.7-4.1-12-10-15.4-17c-3.4-7.1-5.2-14.8-5.2-22.7
	c-0.7-13,3.6-25.7,12.2-35.5c8.2-8.6,19.6-13.3,31.5-12.9c8-0.1,15.9,2,22.8,6c6.7,4,12.1,9.8,15.5,16.9c3.6,7.6,5.4,16,5.3,24.4
	c0.1,8.6-1.8,17.1-5.6,24.7c-3.5,7-9,12.8-15.9,16.6C299.5,348.8,291.9,350.7,284.2,350.7z M284.2,258.1
	c-11.4-0.4-22.4,4.1-30.2,12.3c-8.2,9.5-12.4,21.8-11.7,34.3c0,7.6,1.7,15.1,5,21.9c3.2,6.7,8.4,12.4,14.7,16.3
	c6.7,4,14.3,6.1,22.1,6c7.4,0,14.8-1.8,21.3-5.4c6.6-3.6,11.9-9.2,15.2-15.9c3.7-7.4,5.5-15.6,5.4-23.9c0.1-8.2-1.6-16.3-5.1-23.6
	c-3.2-6.7-8.4-12.3-14.8-16.1C299.5,260,291.9,258,284.2,258.1z M284.1,340.5c-8.5,0.2-16.7-3.3-22.4-9.6
	c-6.2-7.2-9.4-16.5-8.9-26.1c0-13.6,3.1-23.5,9.3-29.4c5.9-5.8,13.9-9,22.2-8.9c5.8-0.1,11.5,1.5,16.4,4.6c4.9,3.1,8.8,7.7,11.1,13
	c2.6,6.1,3.9,12.8,3.8,19.4c0.6,9.9-2.6,19.6-8.9,27.2C301,337.2,292.7,340.8,284.1,340.5L284.1,340.5z M284.3,268.3
	c-7.8-0.1-15.4,2.9-21,8.4c-5.8,5.5-8.8,15-8.8,28.2c-0.5,9.1,2.5,18,8.5,24.9c11.3,11.7,29.9,12.1,41.7,0.8
	c0.3-0.3,0.6-0.6,0.9-0.9c6-7.3,9-16.6,8.4-26.1c0.1-6.4-1.1-12.8-3.6-18.7c-2.2-5-5.8-9.3-10.5-12.3
	C295.1,269.8,289.8,268.2,284.3,268.3L284.3,268.3z"/>
<path class="st1" d="M382.7,346.9v5.9h-33.3c-0.1-1.5,0.2-2.9,0.7-4.3c1-2.5,2.3-4.7,4.1-6.7c2.5-2.8,5.2-5.3,8.1-7.6
	c4.1-3.1,7.8-6.7,11.1-10.7c1.7-2.1,2.7-4.7,2.9-7.4c0.1-2.4-0.9-4.6-2.6-6.2c-1.9-1.7-4.3-2.6-6.8-2.5c-2.6-0.1-5.2,0.8-7.1,2.7
	c-1.9,2-2.8,4.7-2.7,7.4l-6.4-0.7c0.1-4.1,1.9-8,4.9-10.8c3.2-2.6,7.3-3.9,11.4-3.7c4.2-0.2,8.3,1.2,11.5,4c2.8,2.6,4.3,6.2,4.3,10
	c0,2-0.4,4.1-1.2,5.9c-1,2.3-2.4,4.3-4.1,6.2c-3,3.2-6.2,6.1-9.5,8.9c-3.7,3.1-6.1,5.2-7.1,6.3c-1,1-1.9,2.1-2.6,3.3L382.7,346.9z"
	/>
<path class="st1" d="M384.4,354.5h-36.7l-0.1-1.7c-0.1-1.7,0.2-3.4,0.8-5c1-2.6,2.5-5.1,4.3-7.2c2.5-2.9,5.3-5.5,8.3-7.8
	c4-3,7.6-6.5,10.8-10.4c1.5-1.8,2.4-4.1,2.6-6.4c0.1-1.9-0.7-3.7-2.1-4.9c-1.5-1.4-3.6-2.2-5.7-2.1c-2.2-0.1-4.3,0.7-5.9,2.2
	c-1.6,1.7-2.4,3.9-2.2,6.2v1.9l-9.9-1l0.2-1.7c0.2-4.6,2.2-8.9,5.5-12c3.5-2.9,8-4.4,12.6-4.2c4.6-0.2,9.2,1.4,12.7,4.5
	c3.1,2.9,4.8,7,4.8,11.2c0,2.3-0.5,4.5-1.4,6.6c-1.1,2.4-2.6,4.7-4.4,6.6c-3,3.2-6.3,6.2-9.7,9c-3.6,3-6,5.1-7,6.2l-0.4,0.4h23
	L384.4,354.5z M351.2,351.1H381v-2.5h-26l1.6-2.6c0.8-1.3,1.8-2.5,2.8-3.6c1.1-1.2,3.5-3.3,7.3-6.5c3.3-2.7,6.4-5.6,9.3-8.7
	c1.6-1.7,2.8-3.6,3.8-5.7c0.7-1.7,1.1-3.5,1.1-5.3c0.1-3.3-1.3-6.5-3.7-8.7c-2.8-2.5-6.5-3.8-10.3-3.5c-3.7-0.2-7.4,1-10.3,3.3
	c-2.3,2.1-3.7,4.9-4.1,8l2.8,0.3c0.2-2.5,1.3-4.9,3.1-6.7c2.2-2.2,5.3-3.3,8.4-3.2c3-0.1,5.9,1,8.1,3c2.1,1.9,3.2,4.6,3.2,7.4
	c-0.1,3.1-1.3,6.1-3.2,8.5c-3.4,4.1-7.2,7.8-11.4,11c-2.8,2.2-5.5,4.7-7.9,7.4c-1.6,1.8-2.9,3.9-3.8,6.2
	C351.5,349.8,351.3,350.4,351.2,351.1L351.2,351.1z"/>
</svg>
