<?xml version="1.0" encoding="utf-8"?>
<!-- Generator: Adobe Illustrator 25.0.0, SVG Export Plug-In . SVG Version: 6.00 Build 0)  -->
<svg version="1.1" id="Capa_1" xmlns="http://www.w3.org/2000/svg" xmlns:xlink="http://www.w3.org/1999/xlink" x="0px" y="0px"
	 viewBox="0 0 477.3 477.3" style="enable-background:new 0 0 477.3 477.3;" xml:space="preserve">
<style type="text/css">
	.st0{fill:#FFFFFF;}
</style>
<g>
	<g>
		<path class="st0" d="M252.5,104.2H108.3c-4.5,0-8.1,3.7-8.1,8.1v95.3c0,4.5,3.7,8.1,8.1,8.1h144.1c4.5,0,8.1-3.7,8.1-8.1v-95.3
			C260.6,107.9,256.9,104.2,252.5,104.2z M244.3,199.5H116.5v-79h127.9V199.5z"/>
	</g>
</g>
<g>
	<g>
		<path class="st0" d="M272,412.9c9,0,16.3-7.3,16.3-16.3l0,0V266.3h13.3c12,0,21.7,9.7,21.7,21.7v0.3v21.9
			c0,23.1,17.9,42.6,40.9,43.8c24.9,1.2,45.4-18.5,45.4-43.1V182.2c0-13.4-5-26.2-14.1-36.1l-63.7-72.6l-12.2,10.7l49.4,56.3
			c-17.8,3-29.9,19.9-26.9,37.7c2.6,15.8,16.3,27.4,32.3,27.4c6.8-0.1,13.4-2.1,18.9-6v110.9c0,14.1-10.7,26.3-24.8,27.3
			c-15.8,1.2-28.9-11.3-28.9-26.8v-22.6c0.1-21.1-16.9-38.3-37.9-38.4h-0.1h-13.3V97.9c0-18.5-15-33.6-33.6-33.6H103.4
			c-18.6,0-33.4,15.5-33.4,34v298.3v0c0,9,7.3,16.3,16.3,16.3H272z M374.4,189.2c-9.8,0-17.6-8.6-16.3-18.5
			c0.9-7.5,7.1-13.5,14.7-14.3c9.9-1,18.1,6.8,18.1,16.4C390.9,181.8,383.5,189.2,374.4,189.2z M91.8,396.6c-3,0-5.5-2.4-5.5-5.5
			V97.7c0-9.4,7.7-17.1,17.1-17.1h151.3c9.6,0,17.3,8.1,17.3,17.7l0,292.9c0,3-2.4,5.4-5.4,5.4H91.8z"/>
	</g>
</g>
</svg>
